<?xml version="1.0" standalone="no"?>
<!DOCTYPE svg PUBLIC "-//W3C//DTD SVG 20010904//EN"
 "http://www.w3.org/TR/2001/REC-SVG-20010904/DTD/svg10.dtd">
<svg version="1.0" xmlns="http://www.w3.org/2000/svg"
 width="144.000000pt" height="144.000000pt" viewBox="0 0 144.000000 144.000000"
 preserveAspectRatio="xMidYMid meet">

<g transform="translate(0.000000,144.000000) scale(0.100000,-0.100000)"
fill="#000000" stroke="none">
<path d="M656 1310 c-109 -212 -591 -1139 -623 -1199 -22 -41 -28 -60 -17 -50
10 7 88 74 173 147 l156 133 65 132 65 132 123 73 122 74 126 -77 126 -77 61
-129 62 -128 156 -133 c85 -73 163 -140 173 -147 11 -10 5 8 -17 50 -32 60
-514 987 -623 1199 l-49 95 -3 -146 -3 -146 101 -213 c113 -241 117 -234 -43
-80 l-67 65 -98 -98 c-53 -53 -100 -97 -104 -97 -4 0 38 95 93 211 l100 211
-3 147 -3 146 -49 -95z"/>
<path d="M555 449 c-119 -74 -205 -137 -337 -250 -167 -142 -209 -181 -155
-147 30 20 507 288 512 288 2 0 34 -58 72 -130 37 -71 70 -130 73 -130 3 0 36
59 73 130 38 72 70 130 72 130 5 0 472 -262 515 -288 l25 -15 -20 20 c-11 12
-91 82 -178 156 -116 99 -199 160 -319 233 -89 55 -165 100 -168 100 -3 1 -77
-43 -165 -97z"/>
</g>
</svg>
