<?xml version="1.0" encoding="utf-8"?>
<!-- Generator: Adobe Illustrator 26.0.0, SVG Export Plug-In . SVG Version: 6.00 Build 0)  -->
<svg version="1.1" id="图层_1" xmlns="http://www.w3.org/2000/svg" xmlns:xlink="http://www.w3.org/1999/xlink" x="0px" y="0px"
	 viewBox="0 0 1920 1080" style="enable-background:new 0 0 1920 1080;" xml:space="preserve">
<style type="text/css">
	.st0{fill:#FFFFFF;}
	.st1{fill:#FEFEFE;}
	.st2{fill:#948585;}
	.st3{fill:#2D2727;}
	.st4{fill:#2A2B2B;}
	.st5{fill:#413030;}
	.st6{fill:#5A4646;}
	.st7{fill:#8B7C7C;}
	.st8{fill:#C8C3C3;}
	.st9{fill:#2E3131;}
	.st10{fill:#675D5D;}
	.st11{fill:#C6C2C2;}
	.st12{fill:#CACFCF;}
	.st13{fill:#8D9999;}
</style>
<g>
	<g>
		<path class="st0" d="M966.69,175c125.23,0,250.46,0,375.71,0c0,243.34,0,486.67,0,730.08c-254.78,0-509.59,0-764.4,0
			c0-2.65,0-5.37,0-8.08c0.3-0.27,0.53-0.6,0.83-0.87c0.39-0.36,0.75-0.75,1.15-1.1c6.57-5.47,12.96-11.16,19.46-16.71
			c8.45-7.21,16.88-14.43,25.3-21.68c8.6-7.4,17.25-14.75,25.82-22.18c8.27-7.17,16.62-14.25,24.93-21.37
			c8.37-7.17,16.76-14.33,25.12-21.52c9.82-8.44,19.62-16.88,29.46-25.3c9.35-8,18.42-16.35,28.13-23.89
			c5.83-4.53,8.27-10.8,11.18-16.95c3.17-6.72,6.33-13.45,9.48-20.18c8.51-18.17,17.06-36.31,25.58-54.47
			c4.38-9.33,8.75-18.67,13.2-27.97c2.83-5.91,5.57-11.86,8.37-17.79c0.76-1.61,1.81-2.73,3.3-3.63
			c27.88-16.79,55.77-33.55,83.7-50.26c14.89-8.91,29.71-17.93,44.57-26.89c2.01-1.21,3.53-1.15,5.49,0.03
			c34.05,20.65,68.03,41.41,102.08,62.05c9.09,5.51,18.2,11,27.24,16.6c1.28,0.79,2.15,1.77,2.8,3.13
			c5.8,12.02,11.39,24.14,17.07,36.22c8.12,17.29,16.26,34.56,24.35,51.87c4.09,8.76,8.24,17.5,12.35,26.25
			c2.1,4.49,4.41,8.88,6.25,13.48c1.16,2.9,3.28,4.85,5.54,6.76c13.11,11.1,26.08,22.37,39.13,33.54
			c11.96,10.24,23.89,20.5,35.82,30.77c12.83,11.06,25.73,22.04,38.6,33.05c11.9,10.18,23.72,20.45,35.62,30.63
			c9.53,8.15,19.02,16.36,28.61,24.45c0.73,0.62,1.45,1.26,2.04,1.99c-0.01-0.02,0.16-0.07,0.16-0.07s-0.14-0.1-0.16-0.12
			c-4.25-8-8.42-16.01-12.56-24.03c-9.74-18.9-19.62-37.72-29.36-56.62c-6.26-12.15-12.58-24.26-18.9-36.38
			c-10.68-20.48-21.31-40.98-31.95-61.48c-6.26-12.06-12.52-24.11-18.79-36.16c-8.59-16.52-17.19-33.03-25.76-49.57
			c-6.32-12.21-12.68-24.39-19.02-36.59c-10.8-20.77-21.61-41.54-32.39-62.33c-8.35-16.1-16.72-32.2-25.1-48.29
			c-8.6-16.52-17.17-33.05-25.76-49.57c-6.31-12.12-12.58-24.26-18.9-36.38c-10.86-20.84-21.7-41.68-32.5-62.55
			c-6.21-11.99-12.45-23.97-18.69-35.95c-10.93-20.98-21.84-41.97-32.71-62.98c-6.06-11.71-12.19-23.38-18.25-35.1
			c-4.07-7.88-8.21-15.73-12.21-23.44c0.13,0.66,0.08,1.51,0.08,2.36c0,50.76,0,101.52,0,152.28c0,0.96,0.09,1.93-0.2,2.86
			c-0.18,0.58-0.46,1.09-1.15,0.43c-0.62-1.11-0.51-2.33-0.52-3.52c-0.01-51.08-0.01-102.17,0-153.25
			C965.92,177.4,965.76,176.08,966.69,175z"/>
		<path class="st1" d="M578,896.52c0-240.45,0-480.91,0-721.52c125.4,0,250.81,0,376.21,0c1.08,1.31,0.76,2.89,0.77,4.38
			c0.02,22.85,0.01,45.69,0.01,68.54c0,27.48,0,54.96-0.01,82.44c0,1.51,0.21,3.04-0.44,4.48c-0.73,0.88-1.06,0.28-1.25-0.4
			c-0.3-1.09-0.18-2.22-0.18-3.34c0-50.36,0-100.73-0.01-151.09c0-0.79,0.07-1.59-0.08-2.68c-2.08,4.04-4.1,7.84-6.04,11.66
			c-7.81,15.39-15.89,30.65-23.82,45.99c-8.51,16.47-17.07,32.92-25.64,49.36c-8.56,16.44-17.09,32.91-25.65,49.35
			c-8.55,16.45-17.1,32.9-25.64,49.36c-6.26,12.06-12.51,24.12-18.8,36.17c-10.77,20.62-21.47,41.26-32.18,61.91
			c-6.18,11.92-12.38,23.83-18.58,35.74c-8.67,16.66-17.34,33.32-25.98,50c-6.25,12.06-12.53,24.11-18.8,36.17
			c-10.88,20.92-21.79,41.82-32.61,62.76c-6.24,12.07-12.54,24.1-18.8,36.16c-8.58,16.53-17.21,33.03-25.76,49.57
			c-6.31,12.21-12.66,24.4-19.02,36.59c-10.68,20.48-21.32,40.98-31.95,61.48c-6.22,11.99-12.51,23.94-18.69,35.95
			c-1.68,3.26-3.26,6.58-5.26,9.68c-0.19,0.3-0.41,0.58-0.67,0.83C578.81,896.28,578.56,896.79,578,896.52z"/>
		<path class="st0" d="M953.6,335.18c0.4-0.19,0.59-0.52,0.59-0.95c0.01-0.72,0.02-1.44,0.02-2.16c0-52.36,0-104.71,0-157.07
			c4.16,0,8.32,0,12.48,0c0,52.6,0,105.2,0.02,157.8c0,0.95-0.54,2.11,0.62,2.85c1.12,0.26,1.37,1.29,1.76,2.11
			c5.92,12.49,11.78,25.01,17.66,37.52c4.08,8.68,8.13,17.37,12.23,26.04c7.21,15.24,14.32,30.53,21.51,45.77
			c4.3,9.1,8.57,18.22,12.86,27.33c6.91,14.68,13.81,29.35,20.69,44.04c4.34,9.26,8.75,18.49,13.07,27.76
			c1.61,3.47,3.52,6.81,4.67,10.48c0,0.37-0.08,0.71-0.28,1.02c-1.08,0.59-1.56-0.4-2.21-0.88c-3.76-2.75-6.86-6.22-10.21-9.4
			c-6.95-6.59-13.96-13.12-20.92-19.71c-10.72-10.16-21.54-20.21-32.27-30.35c-7.72-7.29-15.46-14.56-23.23-21.79
			c-6.9-6.41-13.67-12.96-20.64-19.3c-0.97-0.88-1.72-0.96-2.67-0.09c-0.59,0.54-1.3,0.94-1.84,1.53c-4.59,4.9-9.67,9.3-14.51,13.94
			c-10.13,9.73-20.4,19.33-30.54,29.06c-5.47,5.25-11.02,10.42-16.52,15.64c-10.3,9.8-20.6,19.58-30.92,29.36
			c-4.69,4.44-9.21,9.08-14.13,13.29c-0.71,0.61-1.27,1.49-2.38,1.42c-0.37-0.13-0.58-0.39-0.68-0.76c-0.06-1.51,0.68-2.79,1.3-4.06
			c5.83-12.09,11.49-24.26,17.18-36.41c9.28-19.82,18.61-39.62,27.9-59.43c5.66-12.08,11.36-24.14,17.04-36.21
			c8.06-17.13,16.1-34.27,24.13-51.41c4.17-8.9,8.27-17.83,12.57-26.66c1.33-2.73,2.39-5.59,3.88-8.24
			C952.27,336.46,952.45,335.39,953.6,335.18z"/>
		<path class="st2" d="M578,896.52c0.31-0.17,0.61-0.35,0.92-0.52c0.27,0.18,0.29,0.37,0.05,0.59c-0.13,0.58-0.55,0.48-0.96,0.41
			C578,896.84,578,896.68,578,896.52z"/>
		<path d="M953.6,335.18c-2.36,4.25-4.24,8.73-6.3,13.11c-32.78,69.71-65.53,139.42-98.29,209.14c-0.34,0.72-0.63,1.46-0.95,2.19
			c-0.11,0.54-0.09,0.95,0.65,0.65c6.97-6.58,13.95-13.15,20.91-19.75c29.69-28.17,59.38-56.36,89.06-84.54
			c0.63-0.6,1.27-1.19,1.94-1.81c9.14,8.58,18.17,17.07,27.2,25.55c27.21,25.56,54.43,51.12,81.64,76.68
			c0.58,0.54,1.2,1.04,1.8,1.56c0.17-0.05,0.3-0.01,0.41,0.12c0.13-0.03,0.19-0.04,0.19-0.04c-0.14-0.09-0.23-0.21-0.29-0.37
			c-0.03-0.31-0.06-0.6-0.25-0.85c-3.67-7.88-7.32-15.77-11.02-23.64c-30.55-65.01-61.1-130.01-91.66-195.01
			c-0.4-0.86-0.88-1.68-1.32-2.52c-0.23-0.86-0.24-1.73-0.24-2.62c0-51.8,0-103.6,0-155.4c0-0.56,0-1.11,0-1.84
			c0.86,0.38,0.99,1.11,1.29,1.68c30.62,58.92,61.23,117.84,91.85,176.76c42.83,82.43,85.67,164.86,128.5,247.28
			c50.64,97.44,101.27,194.88,151.91,292.33c0.29,0.56,0.54,1.15,0.81,1.72c0.25,0.47,0.02,0.54-0.39,0.46
			c-7.35-6.28-14.72-12.54-22.06-18.84c-35.5-30.45-70.99-60.92-106.48-91.37c-18.26-15.67-36.52-31.35-54.8-47
			c-0.94-0.81-1.56-1.75-2.08-2.85c-20.26-43.12-40.53-86.23-60.78-129.36c-0.67-1.43-1.53-2.48-2.9-3.31
			c-43.21-26.22-86.4-52.48-129.57-78.78c-1.49-0.91-2.48-0.98-4.01-0.06c-42.95,25.88-85.94,51.7-128.94,77.49
			c-1.37,0.82-2.26,1.84-2.94,3.27c-20.41,43.49-40.87,86.96-61.28,130.45c-0.66,1.41-1.54,2.55-2.72,3.56
			c-58.32,50.02-116.63,100.05-174.94,150.08c-2.48,2.13-5.01,4.22-7.51,6.32c-0.28,0.17-0.54,0.14-0.76-0.12
			c3.46-6.74,6.89-13.5,10.39-20.22c75.19-144.68,150.38-289.36,225.57-434.04c45.6-87.74,91.19-175.49,136.8-263.23
			c0.39-0.75,0.62-1.61,1.65-2.46c0,0.87,0,1.46,0,2.05c0,51.72,0,103.44,0,155.16C953.69,333.59,953.63,334.38,953.6,335.18z"/>
		<path d="M592.4,902.75c10.24-8.81,20.47-17.63,30.72-26.43c44.71-38.37,89.42-76.74,134.14-115.11
			c7.95-6.82,15.9-13.64,23.84-20.47c0.91-0.79,1.91-1.44,2.93-2.07c58.17-35.59,116.33-71.17,174.48-106.79
			c1.3-0.8,2.22-0.94,3.61-0.08c58.34,35.76,116.71,71.48,175.08,107.19c1.03,0.63,1.96,1.38,2.87,2.16
			c33.07,28.37,66.13,56.74,99.19,85.12c28.82,24.73,57.64,49.45,86.45,74.19c0.48,0.41,0.92,0.87,1.38,1.31
			c0.11,0.47-0.03,0.69-0.54,0.56c-2.8-1.53-5.61-3.03-8.39-4.59c-93.43-52.42-186.85-104.84-280.28-157.26
			c-0.75-0.42-1.44-0.98-2.43-1.15c-24.96,48.52-49.92,97.05-75.09,145.99c-25.17-48.92-50.14-97.47-75.18-146.16
			c-2.61,1.46-5.02,2.81-7.44,4.17c-94.47,53.01-188.94,106.01-283.41,159.01c-0.62,0.35-1.28,0.64-1.92,0.95
			c-0.15-0.12-0.2-0.24-0.15-0.36C592.3,902.81,592.35,902.75,592.4,902.75z"/>
		<path class="st3" d="M1326.55,902.32c0.18-0.19,0.36-0.37,0.54-0.56c0.66,0.28,1.18,0.73,1.55,1.34c0.04,0.21-0.04,0.29-0.25,0.25
			C1327.66,903.21,1327.02,902.91,1326.55,902.32z"/>
		<path class="st4" d="M579.29,895.52c0.25,0.04,0.5,0.08,0.76,0.12c-0.22,0.48-0.59,0.79-1.09,0.95c-0.02-0.2-0.03-0.39-0.05-0.59
			C578.97,895.78,579,895.55,579.29,895.52z"/>
		<path class="st5" d="M1341.06,896.03c0.13-0.15,0.26-0.31,0.39-0.46c0.26,0.24,0.65,0.58,0.34,0.88
			C1341.43,896.79,1341.24,896.3,1341.06,896.03z"/>
		<path class="st6" d="M592.4,902.75c0,0.18,0,0.36,0,0.54c-0.13,0.49-0.52,0.5-0.92,0.49l-0.07-0.1
			C591.52,903.15,591.9,902.88,592.4,902.75z"/>
		<path class="st7" d="M1328.98,903.24c0.14,0.06,0.34,0.08,0.41,0.19c0.14,0.21,0.71,0.34,0.29,0.68c-0.25,0.21-0.58,0-0.7-0.35
			c-0.12-0.11-0.16-0.23-0.12-0.34C1328.9,903.29,1328.94,903.24,1328.98,903.24z"/>
		<path class="st8" d="M590.96,904.22c-0.12,0.32-0.43,0.57-0.6,0.22c-0.18-0.38,0.25-0.6,0.62-0.7c0.1,0.11,0.13,0.22,0.09,0.33
			C591.03,904.17,590.99,904.22,590.96,904.22z"/>
		<path class="st9" d="M1328.98,903.24c0,0.17,0.01,0.34,0.01,0.51c-0.27-0.02-0.5-0.1-0.59-0.39c0.07-0.09,0.15-0.18,0.25-0.25
			C1328.78,903.08,1328.89,903.13,1328.98,903.24z"/>
		<path class="st10" d="M590.96,904.22c0.01-0.16,0.02-0.32,0.03-0.49c0.14-0.08,0.28-0.09,0.43-0.04c0,0,0.07,0.1,0.07,0.1
			C591.46,904.12,591.22,904.18,590.96,904.22z"/>
		<path class="st11" d="M848.71,560.27c-0.25,0.59-0.73,0.96-1.39,1.34c-0.14-0.87,0.23-1.46,0.75-1.99
			C848.27,559.84,848.49,560.05,848.71,560.27z"/>
		<path class="st12" d="M1071.32,556.83c0.35,0.2,0.47,0.53,0.53,0.9c0.16,0.28,0.14,0.55-0.08,0.79c-0.25-0.11-0.48-0.24-0.5-0.56
			C1071.28,557.58,1071.3,557.21,1071.32,556.83z"/>
		<path class="st13" d="M1071.77,558.52c0.03-0.26,0.06-0.53,0.08-0.79c0.28,0.24,0.56,0.52,0.35,0.9
			C1072.1,558.84,1071.87,558.75,1071.77,558.52z"/>
	</g>
</g>
</svg>
